HIERARCHY
ROOT Hips
{
  OFFSET 5.84602e-005 68.8428 3.50346
  CHANNELS 6 Xposition Yposition Zposition Zrotation Xrotation Yrotation
  JOINT Spine
  {
    OFFSET 0 8.597 -4.6522
    CHANNELS 3 Zrotation Xrotation Yrotation
    JOINT Spine1
    {
      OFFSET 0 7.8454 0.4098
      CHANNELS 3 Zrotation Xrotation Yrotation
      JOINT Spine2
      {
        OFFSET 0 9.7078 -2.1609
        CHANNELS 3 Zrotation Xrotation Yrotation
        JOINT Neck
        {
          OFFSET 0 21.8761 -0.4549
          CHANNELS 3 Zrotation Xrotation Yrotation
          JOINT Head
          {
            OFFSET 0 12.3537 3.3602
            CHANNELS 3 Zrotation Xrotation Yrotation
            End Site
            {
              OFFSET 0.0001 18.9506 0.5657
            }
          }
        }
        JOINT LeftShoulder
        {
          OFFSET 2.2086 21.1115 7.2329
          CHANNELS 3 Zrotation Xrotation Yrotation
          JOINT LeftArm
          {
            OFFSET 13.1193 3.0282 -4.8998
            CHANNELS 3 Zrotation Xrotation Yrotation
            JOINT LeftForeArm
            {
              OFFSET 27.4081 -0.0973053 -0.2375
              CHANNELS 3 Zrotation Xrotation Yrotation
              JOINT LeftHand
              {
                OFFSET 22.8641 0.0662994 -0.1369
                CHANNELS 3 Zrotation Xrotation Yrotation
                JOINT LeftHandIndex1
                {
                  OFFSET 8.8614 0.775009 2.4612
                  CHANNELS 3 Zrotation Xrotation Yrotation
                  JOINT LeftHandIndex2
                  {
                    OFFSET 3.3146 -0.808304 0.5841
                    CHANNELS 3 Zrotation Xrotation Yrotation
                    JOINT LeftHandIndex3
                    {
                      OFFSET 2.2628 -0.552002 0.3989
                      CHANNELS 3 Zrotation Xrotation Yrotation
                      End Site
                      {
                        OFFSET 1.6102 -0.4807 0.2612
                      }
                    }
                  }
                }
                JOINT LeftHandMiddle1
                {
                  OFFSET 8.9937 0.895004 0.2143
                  CHANNELS 3 Zrotation Xrotation Yrotation
                  JOINT LeftHandMiddle2
                  {
                    OFFSET 4.0984 0.0113983 -0.0242
                    CHANNELS 3 Zrotation Xrotation Yrotation
                    JOINT LeftHandMiddle3
                    {
                      OFFSET 2.2716 0.00689697 -0.0138001
                      CHANNELS 3 Zrotation Xrotation Yrotation
                      End Site
                      {
                        OFFSET 2.0404 -0.1441 0.0027
                      }
                    }
                  }
                }
                JOINT LeftHandRing1
                {
                  OFFSET 8.5234 0.597198 -2.0164
                  CHANNELS 3 Zrotation Xrotation Yrotation
                  JOINT LeftHandRing2
                  {
                    OFFSET 3.7188 -0.188293 -0.2328
                    CHANNELS 3 Zrotation Xrotation Yrotation
                    JOINT LeftHandRing3
                    {
                      OFFSET 2.1191 -0.106598 -0.1332
                      CHANNELS 3 Zrotation Xrotation Yrotation
                      End Site
                      {
                        OFFSET 1.8737 -0.2304 -0.0886
                      }
                    }
                  }
                }
                JOINT LeftHandPinky1
                {
                  OFFSET 7.9094 -0.601089 -3.4825
                  CHANNELS 3 Zrotation Xrotation Yrotation
                  JOINT LeftHandPinky2
                  {
                    OFFSET 2.2874 -0.477005 -0.6314
                    CHANNELS 3 Zrotation Xrotation Yrotation
                    JOINT LeftHandPinky3
                    {
                      OFFSET 1.6774 -0.349396 -0.4633
                      CHANNELS 3 Zrotation Xrotation Yrotation
                      End Site
                      {
                        OFFSET 1.4888 -0.4091 -0.3416
                      }
                    }
                  }
                }
                JOINT LeftHandThumb1
                {
                  OFFSET 1.833 -1.3875 1.3896
                  CHANNELS 3 Zrotation Xrotation Yrotation
                  JOINT LeftHandThumb2
                  {
                    OFFSET 3.4129 -1.121 2.5732
                    CHANNELS 3 Zrotation Xrotation Yrotation
                    JOINT LeftHandThumb3
                    {
                      OFFSET 2.2474 -0.804199 1.6192
                      CHANNELS 3 Zrotation Xrotation Yrotation
                      End Site
                      {
                        OFFSET 1.6527 -0.5689 1.1317
                      }
                    }
                  }
                }
              }
            }
          }
        }
        JOINT RightShoulder
        {
          OFFSET -2.2086 21.1115 7.2329
          CHANNELS 3 Zrotation Xrotation Yrotation
          JOINT RightArm
          {
            OFFSET -13.1216 3.0287 -4.9007
            CHANNELS 3 Zrotation Xrotation Yrotation
            JOINT RightForeArm
            {
              OFFSET -27.4081 -0.0973053 -0.2375
              CHANNELS 3 Zrotation Xrotation Yrotation
              JOINT RightHand
              {
                OFFSET -22.8641 0.0664063 -0.1369
                CHANNELS 3 Zrotation Xrotation Yrotation
                JOINT RightHandIndex1
                {
                  OFFSET -8.8614 0.774994 2.4612
                  CHANNELS 3 Zrotation Xrotation Yrotation
                  JOINT RightHandIndex2
                  {
                    OFFSET -3.3146 -0.808304 0.5841
                    CHANNELS 3 Zrotation Xrotation Yrotation
                    JOINT RightHandIndex3
                    {
                      OFFSET -2.2628 -0.552002 0.3989
                      CHANNELS 3 Zrotation Xrotation Yrotation
                      End Site
                      {
                        OFFSET -1.6102 -0.4807 0.2612
                      }
                    }
                  }
                }
                JOINT RightHandMiddle1
                {
                  OFFSET -8.9937 0.894989 0.2143
                  CHANNELS 3 Zrotation Xrotation Yrotation
                  JOINT RightHandMiddle2
                  {
                    OFFSET -4.0984 0.0113983 -0.0242
                    CHANNELS 3 Zrotation Xrotation Yrotation
                    JOINT RightHandMiddle3
                    {
                      OFFSET -2.2716 0.00691223 -0.0138001
                      CHANNELS 3 Zrotation Xrotation Yrotation
                      End Site
                      {
                        OFFSET -2.0404 -0.1441 0.0027
                      }
                    }
                  }
                }
                JOINT RightHandRing1
                {
                  OFFSET -8.5234 0.597198 -2.0164
                  CHANNELS 3 Zrotation Xrotation Yrotation
                  JOINT RightHandRing2
                  {
                    OFFSET -3.7188 -0.188309 -0.2328
                    CHANNELS 3 Zrotation Xrotation Yrotation
                    JOINT RightHandRing3
                    {
                      OFFSET -2.1191 -0.106598 -0.1332
                      CHANNELS 3 Zrotation Xrotation Yrotation
                      End Site
                      {
                        OFFSET -1.8737 -0.2304 -0.0886
                      }
                    }
                  }
                }
                JOINT RightHandPinky1
                {
                  OFFSET -7.9094 -0.601105 -3.4825
                  CHANNELS 3 Zrotation Xrotation Yrotation
                  JOINT RightHandPinky2
                  {
                    OFFSET -2.2874 -0.477005 -0.6314
                    CHANNELS 3 Zrotation Xrotation Yrotation
                    JOINT RightHandPinky3
                    {
                      OFFSET -1.6774 -0.349396 -0.4633
                      CHANNELS 3 Zrotation Xrotation Yrotation
                      End Site
                      {
                        OFFSET -1.4888 -0.4091 -0.3416
                      }
                    }
                  }
                }
                JOINT RightHandThumb1
                {
                  OFFSET -1.833 -1.38751 1.3896
                  CHANNELS 3 Zrotation Xrotation Yrotation
                  JOINT RightHandThumb2
                  {
                    OFFSET -3.41299 -1.12099 2.5732
                    CHANNELS 3 Zrotation Xrotation Yrotation
                    JOINT RightHandThumb3
                    {
                      OFFSET -2.24741 -0.804108 1.6192
                      CHANNELS 3 Zrotation Xrotation Yrotation
                      End Site
                      {
                        OFFSET -1.6527 -0.5689 1.1317
                      }
                    }
                  }
                }
              }
            }
          }
        }
      }
    }
  }
  JOINT RightUpLeg
  {
    OFFSET -9.1966 3.8861 -0.7581
    CHANNELS 3 Zrotation Xrotation Yrotation
    JOINT RightLeg
    {
      OFFSET -0.7359 -41.0265 0
      CHANNELS 3 Zrotation Xrotation Yrotation
      JOINT RightFoot
      {
        OFFSET 0 -40.2855 0
        CHANNELS 3 Zrotation Xrotation Yrotation
        JOINT RightToeBase
        {
          OFFSET 0 -5.6122 11.7359
          CHANNELS 3 Zrotation Xrotation Yrotation
          End Site
          {
            OFFSET 0 0 7.8731
          }
        }
      }
    }
  }
  JOINT LeftUpLeg
  {
    OFFSET 9.1965 3.8864 -0.7581
    CHANNELS 3 Zrotation Xrotation Yrotation
    JOINT LeftLeg
    {
      OFFSET 0.7359 -41.0268 0
      CHANNELS 3 Zrotation Xrotation Yrotation
      JOINT LeftFoot
      {
        OFFSET 0 -40.2855 0
        CHANNELS 3 Zrotation Xrotation Yrotation
        JOINT LeftToeBase
        {
          OFFSET 0 -5.6122 11.7359
          CHANNELS 3 Zrotation Xrotation Yrotation
          End Site
          {
            OFFSET 0 0 7.8731
          }
        }
      }
    }
  }
}
MOTION
Frames:	4
Frame Time:	0.0333333
-0.682173 75.5544 -5.48508 -154.458 73.5856 -27.1847 -0.412007 13.8648 -0.599265 -0.701665 27.7329 -1.14501 -0.701664 27.733 -1.14501 6.23282e-005 -29.5295 1.59288e-005 0.320072 -0.568277 0.00857206 -28.3494 -19.78 9.30878 -45.1079 22.5278 -22.1454 -14.5416 26.7557 -80.7654 22.8273 0.0851586 -3.53486 3.08199e-006 9.44219e-007 8.3081e-007 4.75842e-007 -3.36386e-006 1.65736e-006 6.52182e-007 2.29908e-006 3.32082e-007 3.08199e-006 9.44219e-007 8.3081e-007 -0.0146101 -9.1312e-005 -5.91837e-007 -1.77564e-006 3.65398e-006 -1.66179e-007 3.08199e-006 9.44219e-007 8.3081e-007 -0.0187456 -0.00118117 6.10257e-005 6.52203e-007 2.29903e-006 3.32451e-007 3.08199e-006 9.44219e-007 8.3081e-007 -0.0122137 -0.00323658 0.000674402 6.52215e-007 2.29905e-006 3.32308e-007 3.08199e-006 9.44219e-007 8.3081e-007 4.75842e-007 -3.36386e-006 1.65736e-006 6.52182e-007 2.29908e-006 3.32082e-007 1.22177 -12.6131 8.98459 40.0563 -13.4793 65.5313 8.12582 -13.9138 6.13188 38.6443 9.95274 10.6248 -4.10651e-006 1.76731e-006 1.75569e-006 -1.0943e-005 -3.03189e-006 6.38815e-007 -2.55901e-006 2.75883e-006 3.5563e-006 -4.10651e-006 1.76731e-006 1.75569e-006 0.0150876 -9.8859e-005 -7.47564e-006 -2.56097e-006 2.75931e-006 3.55594e-006 -4.10651e-006 1.76731e-006 1.75569e-006 0.0190644 -0.00119712 -6.35917e-005 -4.10658e-006 1.7676e-006 1.75544e-006 -4.10651e-006 1.76731e-006 1.75569e-006 0.0122733 -0.00324881 -0.000676145 -4.10653e-006 1.76748e-006 1.75562e-006 -4.10651e-006 1.76731e-006 1.75569e-006 -1.0943e-005 -3.03189e-006 6.38815e-007 -2.55901e-006 2.75883e-006 3.5563e-006 -99.0034 -49.57 -111.018 -167.877 66.3662 167.044 0.0963657 -16.9763 -2.88212 1.90428e-006 4.31581e-007 -2.4851e-006 100.012 -53.879 114.498 167.337 70.4023 -166.743 2.91933 -13.5392 8.07272 3.88958e-006 -3.15424e-006 2.37473e-006 
-0.5425 71.451 -7.09311 -11.5927 66.2276 -169.444 -0.413664 14.0643 -0.596504 -0.704279 28.1321 -1.13863 -0.704278 28.1321 -1.13863 -8.156e-006 -29.2534 -2.21323e-006 0.320072 -0.568279 0.00857357 -28.3022 -20.0201 9.19697 -45.1079 22.5278 -22.1454 -14.6003 26.7846 -81.4175 22.6401 0.572669 -3.73038 -7.40073e-007 3.38404e-007 3.88194e-006 1.59028e-015 3.97569e-015 1.27222e-014 -2.28162e-006 1.28399e-006 1.43298e-006 -7.40073e-007 3.38404e-007 3.88194e-006 -0.0146289 -8.60416e-005 1.1851e-006 -3.82507e-006 2.22969e-006 -1.0157e-006 -7.40073e-007 3.38404e-007 3.88194e-006 -0.0187554 -0.00117227 6.30358e-005 -2.28187e-006 1.28374e-006 1.43321e-006 -7.40073e-007 3.38404e-007 3.88194e-006 -0.0122599 -0.0032404 0.000677188 -2.28174e-006 1.2838e-006 1.43319e-006 -7.40073e-007 3.38404e-007 3.88194e-006 1.59028e-015 3.97569e-015 1.27222e-014 -2.28162e-006 1.28399e-006 1.43298e-006 1.09583 -12.9723 9.1308 40.0168 -13.5684 65.4565 8.12583 -13.9138 6.13188 38.4903 9.92023 10.9185 2.7917e-006 1.45386e-007 1.82076e-006 3.85994e-006 2.3157e-006 -2.25759e-006 1.29177e-006 1.06334e-006 -1.12203e-007 2.7917e-006 1.45386e-007 1.82076e-006 0.0149929 -9.22739e-005 1.89206e-006 1.2907e-006 1.06333e-006 -1.12344e-007 2.7917e-006 1.45386e-007 1.82076e-006 0.0190264 -0.00118967 -6.09132e-005 1.29041e-006 1.06341e-006 -1.12389e-007 2.7917e-006 1.45386e-007 1.82076e-006 0.0123223 -0.00325765 -0.000682458 -4.22918e-009 -2.91751e-007 -6.40345e-007 2.7917e-006 1.45386e-007 1.82076e-006 3.85994e-006 2.3157e-006 -2.25759e-006 1.29177e-006 1.06334e-006 -1.12203e-007 -96.5681 -49.6369 -108.783 -167.318 67.3725 166.628 0.174058 -17.2175 -2.61813 -8.79513e-007 1.79285e-007 4.3913e-006 97.4526 -54.0986 112.079 166.688 71.3428 -166.202 2.83165 -13.7933 7.88102 1.09443e-006 1.33193e-006 -1.03178e-006 
-0.395763 69.5343 -6.80621 -4.74082 48.8463 -175.993 -0.415319 14.264 -0.593712 -0.706942 28.5313 -1.13217 -0.706942 28.5313 -1.13217 4.6692e-006 -28.9782 1.87492e-006 0.320072 -0.568275 0.00857687 -28.2555 -20.2602 9.08521 -45.1079 22.5278 -22.1454 -14.6587 26.8141 -82.0696 22.4545 1.06076 -3.9243 -2.03743e-006 -5.02792e-007 1.71788e-007 -3.8294e-006 3.18432e-008 -2.35474e-007 -3.82941e-006 3.18432e-008 -2.35474e-007 -2.03743e-006 -5.02792e-007 1.71788e-007 -0.0146135 -8.6182e-005 -1.10917e-006 -3.82978e-006 3.1871e-008 -2.35467e-007 -2.03743e-006 -5.02792e-007 1.71788e-007 -0.0187365 -0.00117475 6.73991e-005 -3.82989e-006 3.18539e-008 -2.35428e-007 -2.03743e-006 -5.02792e-007 1.71788e-007 -0.0122475 -0.00324336 0.00067415 -3.82972e-006 3.18079e-008 -2.35345e-007 -2.03743e-006 -5.02792e-007 1.71788e-007 -3.8294e-006 3.18432e-008 -2.35474e-007 -3.82941e-006 3.18432e-008 -2.35474e-007 0.970662 -13.3318 9.2764 39.9771 -13.6575 65.3816 8.1258 -13.9138 6.13186 38.3365 9.88692 11.212 -8.4168e-007 -9.7281e-007 -1.06604e-006 -5.74888e-007 -4.15142e-007 4.66851e-007 1.14978e-006 8.30284e-007 -9.33702e-007 -8.4168e-007 -9.7281e-007 -1.06604e-006 0.0150258 -9.06884e-005 -4.7443e-006 1.1498e-006 8.30162e-007 -9.33812e-007 -8.4168e-007 -9.7281e-007 -1.06604e-006 0.0189877 -0.0011869 -5.58342e-005 1.1498e-006 8.30128e-007 -9.33852e-007 -8.4168e-007 -9.7281e-007 -1.06604e-006 0.0122877 -0.00325571 -0.000677013 1.14976e-006 8.30186e-007 -9.33825e-007 -8.4168e-007 -9.7281e-007 -1.06604e-006 -5.74888e-007 -4.15142e-007 4.66851e-007 1.14978e-006 8.30284e-007 -9.33702e-007 -95.1961 -49.7398 -107.621 -166.885 68.1217 166.156 0.0526179 -17.0659 -2.51203 1.54297e-006 1.53243e-007 -4.22022e-006 95.9434 -54.2581 110.679 166.154 72.0706 -165.656 2.87117 -13.6562 7.78005 2.4483e-006 2.20139e-006 3.5156e-006 
-0.298958 68.6605 -6.3693 -2.87471 39.1454 -177.678 -0.416994 14.4635 -0.590898 -0.709684 28.9304 -1.12563 -0.709684 28.9304 -1.12563 3.23145e-006 -28.703 -1.99853e-006 0.320072 -0.568275 0.00858199 -28.2092 -20.5004 8.97348 -45.1079 22.5277 -22.1454 -14.7167 26.8441 -82.7217 22.2706 1.54944 -4.11665 -3.18055e-015 -2.38542e-015 -7.95139e-016 3.85689e-006 -2.5486e-007 -1.05932e-007 -3.18055e-015 5.96354e-016 -0 -3.18055e-015 -2.38542e-015 -7.95139e-016 -0.0145963 -9.41061e-005 -4.83051e-007 -9.54166e-015 0 2.38542e-015 -3.18055e-015 -2.38542e-015 -7.95139e-016 -0.0187557 -0.00117773 5.89123e-005 6.36111e-015 -3.97569e-016 -7.95139e-016 -3.18055e-015 -2.38542e-015 -7.95139e-016 -0.0122548 -0.00325025 0.00068231 -6.36111e-015 7.95139e-016 -0 -3.18055e-015 -2.38542e-015 -7.95139e-016 3.85689e-006 -2.5486e-007 -1.05932e-007 -3.18055e-015 5.96354e-016 -0 0.846251 -13.6916 9.4214 39.9374 -13.7465 65.3066 8.12582 -13.9138 6.13188 38.1829 9.85284 11.5054 2.65122e-007 2.13357e-007 -2.56415e-007 7.95365e-007 6.40071e-007 -7.69245e-007 2.65122e-007 2.13357e-007 -2.56415e-007 2.65122e-007 2.13357e-007 -2.56415e-007 0.0149917 -8.9536e-005 -4.03179e-006 2.65125e-007 2.13323e-007 -2.56443e-007 2.65122e-007 2.13357e-007 -2.56415e-007 0.0189979 -0.00119107 -5.82373e-005 2.65123e-007 2.13314e-007 -2.56453e-007 2.65122e-007 2.13357e-007 -2.56415e-007 0.0122772 -0.00325376 -0.000680065 2.65116e-007 2.1333e-007 -2.56446e-007 2.65122e-007 2.13357e-007 -2.56415e-007 7.95365e-007 6.40071e-007 -7.69245e-007 2.65122e-007 2.13357e-007 -2.56415e-007 -94.1406 -49.7739 -106.678 -166.616 68.6016 165.853 -0.0515234 -16.9777 -2.40673 -1.49432e-006 -5.15701e-007 5.44574e-007 94.7494 -54.343 109.522 165.803 72.545 -165.292 2.90233 -13.582 7.68643 2.18874e-006 -4.69459e-007 -7.64571e-006 
